<?xml version="1.0" standalone="no"?>
<!DOCTYPE svg PUBLIC "-//W3C//DTD SVG 20010904//EN"
 "http://www.w3.org/TR/2001/REC-SVG-20010904/DTD/svg10.dtd">
<svg version="1.0" xmlns="http://www.w3.org/2000/svg"
 width="32.000000pt" height="32.000000pt" viewBox="0 0 32.000000 32.000000"
 preserveAspectRatio="xMidYMid meet">

<g transform="translate(0.000000,32.000000) scale(0.100000,-0.100000)"
fill="#000000" stroke="none">
<path d="M225 280 l-38 -39 -91 -3 -91 -3 -3 -83 c-3 -77 -1 -84 18 -89 14 -4
20 -14 20 -34 0 -37 9 -36 45 1 26 27 35 30 91 30 71 0 74 3 74 83 0 45 4 55
37 89 l37 38 -24 25 c-13 14 -26 25 -30 25 -3 0 -23 -18 -45 -40z m60 -1 c11
-17 -1 -21 -15 -4 -8 9 -8 15 -2 15 6 0 14 -5 17 -11z m-54 -73 c-32 -32 -43
-38 -53 -28 -18 18 60 97 79 80 12 -9 7 -19 -26 -52z m-73 7 c-8 -10 -20 -33
-28 -50 -10 -27 -18 -33 -41 -33 -16 0 -29 -4 -29 -10 0 -26 112 2 153 38 16
14 17 12 17 -31 l0 -47 -63 0 c-52 0 -67 -4 -83 -21 l-18 -20 -8 20 c-4 12
-14 21 -23 21 -12 0 -15 14 -15 68 0 38 3 72 7 75 3 4 38 7 76 7 66 0 69 -1
55 -17z m12 -53 c0 -5 -4 -10 -10 -10 -5 0 -10 5 -10 10 0 6 5 10 10 10 6 0
10 -4 10 -10z"/>
</g>
</svg>
